<svg version="1.1" baseProfile="basic" id="Layer_1" xmlns="http://www.w3.org/2000/svg" xmlns:xlink="http://www.w3.org/1999/xlink" x="0px" y="0px" viewBox="0 0 1920 1080" xml:space="preserve">
<style type="text/css">
	.st0{fill:#FFFFFF;}
</style>
<g>
	<g>
		<path class="st0" d="M875.7,355.8v29.7h-59.8v178.3h-34.1V385.6H722v-29.7H875.7z"/>
		<path class="st0" d="M892.8,563.8l68.3-208h51.2l68.3,208h-34.1l-14.7-44.6h-90.3l-14.5,44.6H892.8z M951.2,489.5h70.9    l-35.3-107.7L951.2,489.5z"/>
		<path class="st0" d="M1097.7,563.8v-208h93.9c45.5,0,68.3,21.3,68.3,63.9c0,25.2-10.1,41.5-30.4,49.2    c20.4,6.2,30.6,18.8,30.6,37.7v1.6c0,27.3,2.8,45.8,8.4,55.6h-34.2c-5.6-9.7-8.4-25.3-8.4-46.9v-1.6c0-22.1-11.3-33.1-34-33.1    h-60.1v81.7H1097.7z M1131.8,452.4h59.8c22.8,0,34.1-10.9,34.1-32.7c0-22.8-11.4-34.2-34.1-34.2h-59.8V452.4z"/>
		<path class="st0" d="M1405,385.6c-45.5,0-68.3,24.8-68.3,74.3c0,49.5,22.8,74.3,68.3,74.3c14.2,0,28.5-2.9,42.7-8.6v-50.8h-59.8    V445h93.9v96.6c-22.8,14.9-48.4,22.3-76.8,22.3c-68.3,0-102.4-34.7-102.4-104c0-69.3,34.1-104,102.4-104c28.5,0,51.2,5,68.3,14.9    l-13.7,25.8C1441.4,389.2,1423.2,385.6,1405,385.6z"/>
		<path class="st0" d="M1652.6,563.8H1516v-208h136.6v29.7h-102.4V445h93.9v29.7h-93.9v59.4h102.4V563.8z"/>
		<path class="st0" d="M1840.4,355.8v29.7h-59.8v178.3h-34.1V385.6h-59.8v-29.7H1840.4z"/>
	</g>
	<g>
		<path class="st0" d="M740.8,632.2V715H734v-82.8H740.8z"/>
		<path class="st0" d="M827.1,673.6c0-7.9-4.1-11.8-12.2-11.8c-11.3,0-17,3.9-17,11.8V715h-6.8v-41.4c0-7.9-4.5-11.8-13.6-11.8    c-5.9,0-11.1,2-15.6,5.9V715h-6.8v-59.1h6.8v5.9c4.5-3.9,9.7-5.9,15.6-5.9c7.4,0,13,2.4,17,7.3c3.9-4.8,10.7-7.3,20.4-7.3    c12.7,0,19,5.9,19,17.7V715h-6.8V673.6z"/>
		<path class="st0" d="M920.2,673.6c0-7.9-4.1-11.8-12.2-11.8c-11.3,0-17,3.9-17,11.8V715h-6.8v-41.4c0-7.9-4.5-11.8-13.6-11.8    c-5.9,0-11.1,2-15.6,5.9V715h-6.8v-59.1h6.8v5.9c4.5-3.9,9.7-5.9,15.6-5.9c7.4,0,13,2.4,17,7.3c3.9-4.8,10.7-7.3,20.4-7.3    c12.7,0,19,5.9,19,17.7V715h-6.8V673.6z"/>
		<path class="st0" d="M951.5,632.2v8.9h-10.2v-8.9H951.5z M943.3,715v-59.1h6.8V715H943.3z"/>
		<path class="st0" d="M989.5,732.7c13.6,0,20.4-5.9,20.4-17.7v-5.9c-4.5,3.9-10.2,5.9-17,5.9c-18.1,0-27.2-9.8-27.2-29.6    c0-19.7,9.1-29.6,27.2-29.6c6.8,0,12.5,2,17,5.9v-5.9h6.8V715c0,15.8-9.1,23.6-27.2,23.6c-9.1,0-17-2-23.8-5.9l3.3-5    C975.4,731,982.2,732.7,989.5,732.7z M972.5,685.4c0,15.8,6.8,23.6,20.4,23.6c6.8,0,12.5-2,17-5.9v-35.5c-4.5-3.9-10.2-5.9-17-5.9    C979.3,661.8,972.5,669.6,972.5,685.4z"/>
		<path class="st0" d="M1037.8,655.9v5.9c4.5-3.9,11.3-5.9,20.4-5.9v5.9c-9.1,0-15.9,2-20.4,5.9V715h-6.8v-59.1H1037.8z"/>
		<path class="st0" d="M1132.9,715c-7.8,0-12.9-2.2-15.2-6.5c-7.8,4.3-15,6.5-21.5,6.5c-15.9,0-23.8-5.9-23.8-17.7    c0-11.8,7.9-17.7,23.8-17.7c6.8,0,13.6,2,20.4,5.9v-5.9c0-11.8-6.3-17.7-19-17.7c-6.7,0-12.8,1.3-18.5,3.9l-3.3-3.9    c6.8-3.9,14-5.9,21.7-5.9c17.2,0,25.8,7.9,25.8,23.6v24.2c0,3.9,3.4,5.9,10.2,5.9L1132.9,715z M1116.6,690.7    c-6.8-3.9-13.6-5.9-20.4-5.9c-11.3,0-17,4.1-17,12.4c0,8.3,5.7,12.4,17,12.4c6.8,0,13.6-2,20.4-5.9V690.7z"/>
		<path class="st0" d="M1168.3,709.1c5,0,8.8-1,11.5-3l2,5.3c-4.1,2.4-8.6,3.5-13.6,3.5c-11.3,0-17-5.9-17-17.7v-35.5h-10.2v-5.9    h10.2v-20.7l6.8-3v23.6h23.8v5.9h-23.8v35.5C1158.1,705.1,1161.5,709.1,1168.3,709.1z"/>
		<path class="st0" d="M1206.3,632.2v8.9h-10.2v-8.9H1206.3z M1198.2,715v-59.1h6.8V715H1198.2z"/>
		<path class="st0" d="M1278.4,685.4c0,19.7-9.6,29.6-28.7,29.6c-19.3,0-29-9.8-29-29.6c0-19.7,9.7-29.6,29-29.6    C1268.8,655.9,1278.4,665.7,1278.4,685.4z M1249.6,709.1c14.6,0,21.9-7.9,21.9-23.6c0-15.8-7.3-23.6-21.9-23.6    c-14.8,0-22.2,7.9-22.2,23.6C1227.4,701.2,1234.8,709.1,1249.6,709.1z"/>
		<path class="st0" d="M1336.8,679.5c0-11.8-6.1-17.7-18.3-17.7c-8.2,0-14.5,2-19,5.9V715h-6.8v-59.1h6.8v5.9    c4.5-3.9,10.9-5.9,19-5.9c16.8,0,25.1,7.9,25.1,23.6V715l-6.8-0.1V679.5z"/>
		<path class="st0" d="M1409.5,709.1c18.1,0,27.2-5.9,27.2-17.7c0-7.9-7.5-12.8-22.4-14.8c-18.1-2-27.2-8.9-27.2-20.7    c0-15.8,9.7-23.6,29.2-23.6c9.5,0,17.4,2,23.8,5.9v0.2l-1.9,5.4c-6.4-3.7-13.7-5.6-21.9-5.6c-14.9,0-22.4,5.9-22.4,17.7    c0,7.9,6.8,12.8,20.4,14.8c19.5,2,29.2,8.9,29.2,20.7c0,15.8-11.3,23.6-34,23.6c-9.5,0-17.4-2-23.7-5.8l2.2-5.6    C1394.7,707.2,1401.8,709.1,1409.5,709.1z"/>
		<path class="st0" d="M1486.3,715c-19,0-28.5-9.8-28.5-29.6c0-19.7,9.1-29.6,27.2-29.6c18.1,0,27.2,10.7,27.2,32.2v0.3h-46.9    c0.7,13.8,7.7,20.7,21.1,20.7c6.3,0,13.3-1.6,20.9-4.9l2.2,4.9C1502.6,713,1494.9,715,1486.3,715z M1504.7,682.5    c-1.7-13.8-8.3-20.7-19.8-20.7c-12.4,0-19,6.9-19.8,20.7H1504.7z"/>
		<path class="st0" d="M1533.2,655.9v5.9c4.5-3.9,11.3-5.9,20.4-5.9v5.9c-9.1,0-15.9,2-20.4,5.9V715h-6.8v-59.1H1533.2z"/>
		<path class="st0" d="M1567.9,655.9l19.9,50.8l20.9-50.8h6.8l-23.8,59.1h-8.1l-22.4-59.1H1567.9z"/>
		<path class="st0" d="M1633.1,632.2v8.9h-10.2v-8.9H1633.1z M1625,715v-59.1h6.8V715H1625z"/>
		<path class="st0" d="M1678,715c-20.4,0-30.6-9.8-30.6-29.6c0-19.7,10.2-29.6,30.6-29.6c9.5,0,16.2,2,20.3,5.8l-3.1,4.6    c-5.1-3-10.8-4.5-17.3-4.5c-15.9,0-23.8,7.9-23.8,23.6c0,15.8,7.9,23.6,23.8,23.6c6.4,0,12.1-1.5,17.1-4.4l3.3,4.4    C1694.3,713,1687.5,715,1678,715z"/>
		<path class="st0" d="M1741.2,715c-19,0-28.5-9.8-28.5-29.6c0-19.7,9.1-29.6,27.2-29.6c18.1,0,27.2,10.7,27.2,32.2v0.3h-46.9    c0.7,13.8,7.7,20.7,21.1,20.7c6.3,0,13.3-1.6,20.9-4.9l2.2,4.9C1757.5,713,1749.8,715,1741.2,715z M1759.6,682.5    c-1.7-13.8-8.3-20.7-19.8-20.7c-12.4,0-19,6.9-19.8,20.7H1759.6z"/>
		<path class="st0" d="M1804.1,709.1c11.8,0,17.7-3.9,17.7-11.8c0-5.9-5.7-8.9-17-8.9c-14.9,0-22.4-4.9-22.4-14.8    c0-11.8,7.7-17.7,23.1-17.7c10,0,17.2,2,21.7,5.9l-2.8,4.5c-7.5-3-13.8-4.5-19-4.5c-10.9,0-16.3,3.9-16.3,11.8    c0,5.9,5.2,8.9,15.6,8.9c15.9,0,23.8,4.9,23.8,14.8c0,11.8-8.2,17.7-24.5,17.7c-8.5,0-16.1-1.9-22.8-5.8l2.7-5    C1792.9,707.4,1799.6,709.1,1804.1,709.1z"/>
	</g>
	<g>
		<g>
			<path class="st0" d="M342.4,183.7c-141.8,0-256.6,114.9-256.6,256.6c0,2.3,0,4.5,0.1,6.7h-0.2c0,131.6,96.2,268.7,170.8,355.2     c3.9,4.5,7.8,8.9,11.6,13.2c0.4,0.4,0.9,0.9,1.3,1.3c1.3,1.3,2.7,2.5,4.1,3.7c18.8,16,43.2,25.7,69.9,25.7     c26.6,0,51-9.6,69.8-25.6c0.3-0.2,0.5-0.4,0.8-0.6l0.1-0.1c1.9-1.6,3.8-3.4,5.6-5.1c2.4-2.6,4.8-5.3,7.2-8c0,0,0,0,0,0     c74.8-83.6,172.2-216.9,172.2-344.8v-14.8c0.1-2.3,0.1-4.5,0.1-6.7C599,298.6,484.1,183.7,342.4,183.7z M311.3,636.2h-36.7v109.5     h-21V636.2h-36.7v-18.2h94.4V636.2z M446.5,741.4c-7.3,2.9-16.6,4.3-27.8,4.3c-14.9,0-26.9-1.8-36.1-5.3     c-2.8-1.1-5.4-2.3-7.7-3.7l5.1-16c12.9,4.5,25.8,6.7,38.7,6.7c13.2,0,21.9-2.8,26.2-8.4c2.1-2.6,3.1-5.9,3.1-9.9     c0-9.1-8.1-15.2-24.4-18.2c-0.8-0.1-1.6-0.2-2.5-0.3c-29.5-3.4-44.3-15.5-44.3-36.2c0-23.4,14.4-35.5,43.3-36.4     c1.1,0,2.3-0.1,3.5-0.1c5.8,0,11.3,0.4,16.3,1.2c8.9,1.4,16.5,4,22.7,7.9v0.4l-4.7,15.6c-2.6-0.9-5.1-1.8-7.6-2.6     c-1.3-0.4-2.5-0.7-3.7-1c-8.1-2.2-15.8-3.3-23-3.3c-10.8,0-18.3,2.1-22.7,6.4c-3,2.9-4.6,6.9-4.6,11.8c0,8.2,7.4,14,22.2,17.2     c1.6,0.4,3.4,0.7,5.1,1c29.3,3,43.9,15.2,43.9,36.5C467.4,725.2,460.4,735.9,446.5,741.4z M354.3,600.9v144.8h-21V601.1h-3.2     c-84.3-5.6-150.9-75.7-150.9-161.4c0-89.4,72.4-161.8,161.8-161.8c89.4,0,161.8,72.4,161.8,161.8     C502.9,524.6,437.5,594.2,354.3,600.9z"/>
			<path class="st0" d="M408,530.2c1.9,6.8,3.1,13.8,4.9,22.1c-16.6-2.6-42.8-7.1-54.9-9.2c-1.5-0.2-2.7-0.4-3.7-0.6v58.5     c-0.7,0.1-1.5,0.1-2.2,0.2h-18.8v-59.4c-0.3,0.1-0.7,0.1-1.1,0.2c-8.4,1.7-43.5,8.9-63.5,12.9c2.5-8.4,4.4-15.3,6.9-22     c1.7-4.6,0.9-7.7-3-10.9c-9.7-7.9-19.2-16.2-28.7-24.4c-10.4-9-20.9-18.1-31.9-27.5c2.2-1.8,3.8-2.9,5.2-4     c13.3-9.9,12.2-4.7,7.8-21.9c-2.6-10.1-5.2-20.2-8.1-31.5c12,2.1,22.3,4.3,32.7,5.6c2.4,0.3,5.9-1.7,7.4-3.7     c2.8-3.9,4.5-8.6,7.4-14.6c4.9,5,9.6,9.8,14.2,14.6c7.4,7.5,14.7,15,22.7,23.2c-0.7-4.1-1.5-8.1-2.2-12.2     c-4.4-24.3-8.6-47.5-13.1-71.8c10.1,4.9,18.5,9.1,27.5,13.5c9.3-17.6,18.3-34.4,27.9-52.8c9.4,18.3,18.1,35.2,27.1,52.5     c8.9-4.8,16.7-8.9,26-13.8c-3.7,24.4-7.1,47.4-10.9,72.2c-0.5,3.4-1.1,6.9-1.6,10.4c7.9-7.4,15.2-14.3,22.3-21     c5.1-4.9,10.2-9.7,15.5-14.5c2.4,7.2,4.4,13,6.5,19.2c0.1,0.3,0.2,0.6,0.3,0.9c3.6-0.8,7.2-1.6,10.7-2.3c9.3-2,18.5-4,28.4-6.1     c-2.9,11.9-5.5,22.4-8.2,32.8c-3.5,14.2-3.5,14.2,9.3,22.2c1.1,0.7,2.1,1.6,3.6,2.8c-2.5,2.2-4.4,4.1-6.5,5.8     c-17.3,14.5-34.6,29.1-52.1,43.3C407.8,522,406.6,525.2,408,530.2z"/>
			<path class="st0" d="M398.3,841.8c-32.6,34-56,54.2-56,54.2s-23.6-21.2-56.6-56.7c15,14.2,35.3,22.9,57.7,22.9     C364.3,862.3,383.5,854.6,398.3,841.8z"/>
		</g>
	</g>
</g>
</svg>
